<svg width="74" height="100" viewBox="0 0 74 100" fill="none" xmlns="http://www.w3.org/2000/svg">
<path d="M61.2225 62.1871V65.5148L3.79582 98.6623L2.02879 99.6606C1.62763 99.3882 1.29627 99.0251 1.06155 98.6007C0.826824 98.1764 0.695336 97.7027 0.677734 97.2181V41.3954C0.681604 41.2957 0.710192 41.1985 0.760928 41.1126C0.810886 41.0246 0.881749 40.9503 0.967248 40.8963L14.0552 33.339C14.2149 33.2491 15.1467 33.6385 15.2998 33.7317L15.3996 33.7882C15.4861 33.8437 15.5636 33.9121 15.6292 33.9912C15.7025 34.0713 15.7591 34.1652 15.7956 34.2674L16.9803 37.6883L59.5752 12.3111C59.6628 12.2705 59.7582 12.2495 59.8548 12.2495C59.9513 12.2495 60.0467 12.2705 60.1343 12.3111L60.9263 12.7703C61.0107 12.8232 61.0805 12.8964 61.1293 12.9833C61.1815 13.0698 61.2102 13.1684 61.2125 13.2694V62.1871H61.2225Z" fill="#263238"/>
<path d="M61.2225 65.5014L2.02881 99.6605V41.8412L15.6292 33.9911C15.7025 34.0712 15.7591 34.1651 15.7956 34.2673L16.9803 37.6882L17.2066 38.3371L61.1326 12.9731C61.1848 13.0596 61.2135 13.1583 61.2158 13.2593L61.2225 65.5014Z" fill="#37474F"/>
<path d="M15.629 33.9911L2.02861 41.8412L0.760742 41.1125C0.810701 41.0245 0.881563 40.9502 0.967062 40.8962L14.055 33.3389C14.143 33.2936 14.2406 33.27 14.3395 33.27C14.4385 33.27 14.5361 33.2936 14.6241 33.3389L15.3994 33.7848C15.4862 33.8412 15.5637 33.9108 15.629 33.9911Z" fill="#455A64"/>
<path d="M61.1362 12.9733L17.2102 38.3372L16.9839 37.6883L59.5788 12.3111C59.6664 12.2705 59.7618 12.2495 59.8584 12.2495C59.9549 12.2495 60.0503 12.2705 60.1379 12.3111L60.9299 12.7703C61.0143 12.82 61.0852 12.8897 61.1362 12.9733Z" fill="#455A64"/>
<path d="M20.2147 76.1568C20.0321 76.0337 19.8811 75.8691 19.7741 75.6766C19.6671 75.484 19.6071 75.2688 19.5991 75.0487V20.0546C19.6123 19.8267 19.6795 19.6052 19.7952 19.4085C19.911 19.2118 20.0719 19.0454 20.2647 18.9232L52.75 0.188061C52.939 0.0693373 53.1568 0.00439365 53.38 0.000215186C53.6032 -0.00396328 53.8234 0.0527808 54.0167 0.164346C54.2101 0.275911 54.3694 0.438076 54.4774 0.6334C54.5855 0.828723 54.6383 1.04982 54.6301 1.2729V56.267C54.6165 56.4947 54.549 56.716 54.4333 56.9127C54.3176 57.1093 54.157 57.2758 53.9646 57.3984L21.4826 76.1335C21.2881 76.2371 21.0718 76.2932 20.8515 76.2972C20.6311 76.3013 20.413 76.2532 20.2147 76.1568Z" fill="#FAFAFA"/>
<path d="M21.4823 76.1334L53.9677 57.3983C54.1601 57.2757 54.3207 57.1092 54.4364 56.9126C54.5521 56.7159 54.6195 56.4946 54.6332 56.2669V1.27282C54.6332 0.85685 54.3404 0.687136 53.9677 0.893456L21.479 19.6319C21.2866 19.7545 21.126 19.921 21.0103 20.1176C20.8946 20.3143 20.8272 20.5356 20.8135 20.7633V75.7574C20.8268 76.1734 21.1196 76.3431 21.4823 76.1334Z" fill="#F0F0F0"/>
<path d="M25.0401 21.815L49.5721 7.6522C49.8882 7.46917 50.1478 7.61559 50.1478 7.98497V8.21458C50.1365 8.41439 50.0785 8.60876 49.9785 8.78213C49.8785 8.95549 49.7393 9.10302 49.5721 9.2129L25.0401 23.3757C24.7073 23.5588 24.4644 23.409 24.4644 23.043V22.8133C24.4752 22.6134 24.5329 22.4188 24.6329 22.2454C24.7329 22.0719 24.8724 21.9245 25.0401 21.815Z" fill="#E0E0E0"/>
<path d="M25.0401 25.7119L49.5721 11.5491C49.8882 11.366 50.1478 11.5158 50.1478 11.8818V12.1114C50.137 12.3114 50.0792 12.5059 49.9792 12.6794C49.8792 12.8528 49.7397 13.0003 49.5721 13.1098L25.0401 27.2726C24.7073 27.4556 24.4644 27.3059 24.4644 26.9398V26.7102C24.4757 26.5104 24.5336 26.316 24.6336 26.1427C24.7336 25.9693 24.8728 25.8218 25.0401 25.7119Z" fill="#E0E0E0"/>
<path d="M25.0401 29.6086L49.5721 15.4458C49.8882 15.2628 50.1478 15.4125 50.1478 15.7786V16.0082C50.137 16.2081 50.0792 16.4027 49.9792 16.5761C49.8792 16.7496 49.7397 16.897 49.5721 17.0065L25.0401 31.1693C24.7073 31.3557 24.4644 31.2059 24.4644 30.8365V30.6069C24.4757 30.4071 24.5336 30.2127 24.6336 30.0394C24.7336 29.866 24.8728 29.7185 25.0401 29.6086Z" fill="#E0E0E0"/>
<path d="M25.0401 33.5053L49.5721 19.3458C49.8882 19.1594 50.1478 19.3092 50.1478 19.6786V19.9082C50.1362 20.1079 50.0781 20.3022 49.9782 20.4755C49.8782 20.6489 49.7392 20.7964 49.5721 20.9065L25.0401 35.0693C24.7073 35.2523 24.4644 35.1026 24.4644 34.7365V34.5036C24.4759 34.3039 24.534 34.1096 24.634 33.9363C24.7339 33.7629 24.873 33.6154 25.0401 33.5053Z" fill="#E0E0E0"/>
<path d="M25.0401 37.4054L49.5721 23.2425C49.8882 23.0595 50.1478 23.2059 50.1478 23.5753V23.8049C50.1365 24.0047 50.0785 24.1991 49.9785 24.3725C49.8785 24.5458 49.7393 24.6934 49.5721 24.8032L25.0401 38.9661C24.7073 39.1491 24.4644 38.9993 24.4644 38.6333V38.4037C24.4752 38.2037 24.5329 38.0092 24.6329 37.8357C24.7329 37.6623 24.8724 37.5148 25.0401 37.4054Z" fill="#E0E0E0"/>
<path d="M25.0401 41.3321L49.5721 27.1693C49.8882 26.9829 50.1478 27.1327 50.1478 27.5021V27.7317C50.1362 27.9314 50.0781 28.1257 49.9782 28.299C49.8782 28.4723 49.7392 28.6199 49.5721 28.73L25.0401 42.8928C24.7073 43.0758 24.4644 42.9261 24.4644 42.56V42.3304C24.4752 42.1305 24.5329 41.9359 24.6329 41.7625C24.7329 41.589 24.8724 41.4416 25.0401 41.3321Z" fill="#E0E0E0"/>
<path d="M25.0401 45.2288L49.5721 31.066C49.8882 30.883 50.1478 31.0294 50.1478 31.3988V31.6284C50.1365 31.8282 50.0785 32.0226 49.9785 32.1959C49.8785 32.3693 49.7393 32.5168 49.5721 32.6267L25.0401 46.7895C24.7073 46.9726 24.4644 46.8228 24.4644 46.4568V46.2272C24.4752 46.0272 24.5329 45.8327 24.6329 45.6592C24.7329 45.4858 24.8724 45.3383 25.0401 45.2288Z" fill="#E0E0E0"/>
<path d="M25.0401 49.1257L49.5721 34.9629C49.8882 34.7799 50.1478 34.9296 50.1478 35.2957V35.5253C50.137 35.7252 50.0792 35.9198 49.9792 36.0932C49.8792 36.2667 49.7397 36.4141 49.5721 36.5236L25.0401 50.6864C24.7073 50.8694 24.4644 50.723 24.4644 50.3536V50.124C24.4757 49.9242 24.5336 49.7298 24.6336 49.5565C24.7336 49.3831 24.8728 49.2356 25.0401 49.1257Z" fill="#E0E0E0"/>
<path d="M25.0401 53.0224L49.5721 38.8596C49.8882 38.6766 50.1478 38.8263 50.1478 39.1924V39.4287C50.137 39.6286 50.0792 39.8231 49.9792 39.9966C49.8792 40.17 49.7397 40.3175 49.5721 40.427L25.0401 54.5898C24.7073 54.7761 24.4644 54.6264 24.4644 54.257V54.0274C24.4749 53.8265 24.5325 53.6309 24.6325 53.4563C24.7325 53.2818 24.8721 53.1332 25.0401 53.0224Z" fill="#E0E0E0"/>
<path d="M25.0401 56.9226L49.5721 42.7564C49.8882 42.5701 50.1478 42.7198 50.1478 43.0892V43.3188C50.1362 43.5186 50.0781 43.7128 49.9782 43.8862C49.8782 44.0595 49.7392 44.2071 49.5721 44.3171L25.0401 58.48C24.7073 58.663 24.4644 58.5132 24.4644 58.1472V57.9176C24.4757 57.7182 24.5337 57.5243 24.6337 57.3515C24.7337 57.1787 24.8729 57.0318 25.0401 56.9226Z" fill="#E0E0E0"/>
<path d="M25.0401 60.8359L49.5721 46.6731C49.8882 46.4901 50.1478 46.6398 50.1478 47.0059V47.2355C50.1365 47.4353 50.0785 47.6296 49.9785 47.803C49.8785 47.9764 49.7393 48.1239 49.5721 48.2338L25.0401 62.39C24.7073 62.573 24.4644 62.4232 24.4644 62.0572V61.8276C24.4762 61.6288 24.5344 61.4355 24.6344 61.2633C24.7344 61.0911 24.8733 60.9447 25.0401 60.8359Z" fill="#E0E0E0"/>
<path d="M25.0401 64.7195L49.5721 50.5566C49.8882 50.3736 50.1478 50.5234 50.1478 50.8894V51.119C50.137 51.3189 50.0792 51.5135 49.9792 51.687C49.8792 51.8604 49.7397 52.0078 49.5721 52.1173L25.0401 66.2802C24.7073 66.4632 24.4644 66.3168 24.4644 65.9474V65.7178C24.4757 65.518 24.5336 65.3236 24.6336 65.1502C24.7336 64.9769 24.8728 64.8293 25.0401 64.7195Z" fill="#E0E0E0"/>
<path d="M25.0401 68.6296L49.5721 54.4668C49.8882 54.2838 50.1478 54.4335 50.1478 54.7996V55.0325C50.1362 55.2322 50.0781 55.4265 49.9782 55.5998C49.8782 55.7732 49.7392 55.9207 49.5721 56.0308L25.0401 70.1903C24.7073 70.3767 24.4644 70.2269 24.4644 69.8575V69.6279C24.4759 69.4282 24.534 69.2339 24.634 69.0606C24.7339 68.8873 24.873 68.7397 25.0401 68.6296Z" fill="#E0E0E0"/>
<path d="M21.3962 76.1768C21.2064 76.2777 20.9933 76.3268 20.7784 76.3189C20.5636 76.3111 20.3546 76.2467 20.1726 76.1323C19.9906 76.0178 19.8421 75.8573 19.742 75.6671C19.6419 75.4768 19.5938 75.2635 19.6026 75.0487V20.0579C19.6106 19.8302 19.6759 19.6082 19.7923 19.4124L21.0202 20.1212C20.9021 20.3153 20.8356 20.5364 20.8272 20.7634V75.7575C20.8272 76.1402 21.0768 76.3132 21.3962 76.1768Z" fill="#E0E0E0"/>
<path d="M24.8139 78.7657C24.6312 78.6426 24.4802 78.478 24.3732 78.2855C24.2662 78.0929 24.2063 77.8777 24.1982 77.6576V22.6635C24.2114 22.4356 24.2786 22.2141 24.3943 22.0174C24.5101 21.8206 24.671 21.6543 24.8638 21.5321L57.3491 2.79695C57.5381 2.67822 57.756 2.61328 57.9792 2.6091C58.2024 2.60492 58.4225 2.66167 58.6158 2.77323C58.8092 2.8848 58.9685 3.04696 59.0766 3.24229C59.1846 3.43761 59.2374 3.6587 59.2293 3.88179V58.8759C59.2156 59.1036 59.1481 59.3249 59.0325 59.5216C58.9168 59.7182 58.7561 59.8847 58.5637 60.0073L26.0784 78.7424C25.8843 78.8454 25.6686 78.9012 25.4489 78.9053C25.2292 78.9093 25.0116 78.8615 24.8139 78.7657Z" fill="#FAFAFA"/>
<path d="M26.082 78.7423L58.5673 60.0072C58.7597 59.8846 58.9203 59.7181 59.036 59.5215C59.1517 59.3248 59.2191 59.1035 59.2328 58.8758V3.8817C59.2328 3.46574 58.94 3.29602 58.5673 3.50234L26.0786 22.2408C25.8862 22.3634 25.7256 22.5299 25.6099 22.7265C25.4942 22.9232 25.4268 23.1445 25.4131 23.3722V78.363C25.4264 78.7822 25.7192 78.952 26.082 78.7423Z" fill="#F0F0F0"/>
<path d="M29.6392 24.4239L54.1712 10.2611C54.504 10.0781 54.7469 10.2245 54.7469 10.5939V10.8102C54.7356 11.01 54.6776 11.2043 54.5776 11.3777C54.4777 11.5511 54.3385 11.6986 54.1712 11.8085L29.6392 25.9846C29.3064 26.1676 29.0635 26.0179 29.0635 25.6518V25.4222C29.0743 25.2223 29.132 25.0277 29.2321 24.8543C29.3321 24.6808 29.4715 24.5334 29.6392 24.4239Z" fill="#E0E0E0"/>
<path d="M29.6392 28.3208L54.1712 14.1579C54.504 13.9749 54.7469 14.1247 54.7469 14.4907V14.7203C54.7361 14.9203 54.6784 15.1148 54.5783 15.2883C54.4783 15.4617 54.3388 15.6092 54.1712 15.7187L29.6392 29.8815C29.3064 30.0645 29.0635 29.9181 29.0635 29.5487V29.3191C29.0748 29.1193 29.1328 28.9249 29.2327 28.7515C29.3327 28.5782 29.4719 28.4306 29.6392 28.3208Z" fill="#E0E0E0"/>
<path d="M29.6392 32.2175L54.1712 18.0547C54.504 17.8717 54.7469 18.0214 54.7469 18.3874V18.6171C54.7361 18.817 54.6784 19.0116 54.5783 19.185C54.4783 19.3585 54.3388 19.5059 54.1712 19.6154L29.6392 33.7715C29.3064 33.9579 29.0635 33.8082 29.0635 33.4388V33.2092C29.0758 33.0105 29.1343 32.8175 29.2342 32.6453C29.3341 32.4732 29.4728 32.3267 29.6392 32.2175Z" fill="#E0E0E0"/>
<path d="M29.6392 36.1175L54.1712 21.9547C54.504 21.7683 54.7469 21.9181 54.7469 22.2875V22.5171C54.7353 22.7168 54.6772 22.9111 54.5773 23.0844C54.4773 23.2577 54.3383 23.4053 54.1712 23.5154L29.6392 37.6782C29.3064 37.8612 29.0635 37.7115 29.0635 37.3454V37.1158C29.0743 36.9159 29.132 36.7213 29.2321 36.5479C29.3321 36.3744 29.4715 36.227 29.6392 36.1175Z" fill="#E0E0E0"/>
<path d="M29.6392 40.0142L54.1712 25.8514C54.504 25.6684 54.7469 25.8148 54.7469 26.1842V26.4138C54.7356 26.6136 54.6776 26.808 54.5776 26.9813C54.4777 27.1547 54.3385 27.3022 54.1712 27.4121L29.6392 41.5749C29.3064 41.758 29.0635 41.6082 29.0635 41.2422V41.0126C29.0743 40.8126 29.132 40.6181 29.2321 40.4446C29.3321 40.2712 29.4715 40.1237 29.6392 40.0142Z" fill="#E0E0E0"/>
<path d="M29.6392 43.941L54.1712 29.7782C54.504 29.5918 54.7469 29.7416 54.7469 30.1109V30.3406C54.7353 30.5403 54.6772 30.7346 54.5773 30.9079C54.4773 31.0812 54.3383 31.2288 54.1712 31.3389L29.6392 45.5017C29.3064 45.6847 29.0635 45.535 29.0635 45.1689V44.9393C29.0743 44.7394 29.132 44.5448 29.2321 44.3714C29.3321 44.1979 29.4715 44.0505 29.6392 43.941Z" fill="#E0E0E0"/>
<path d="M29.6392 47.8377L54.1712 33.6749C54.504 33.4919 54.7469 33.6383 54.7469 34.0077V34.2373C54.7356 34.4371 54.6776 34.6315 54.5776 34.8048C54.4777 34.9782 54.3385 35.1257 54.1712 35.2356L29.6392 49.4117C29.3064 49.5948 29.0635 49.445 29.0635 49.079V48.8494C29.0722 48.6471 29.129 48.4499 29.2291 48.274C29.3292 48.0981 29.4698 47.9485 29.6392 47.8377Z" fill="#E0E0E0"/>
<path d="M29.6392 51.7412L54.1712 37.5784C54.504 37.3953 54.7469 37.5451 54.7469 37.9111V38.1407C54.7361 38.3407 54.6784 38.5352 54.5783 38.7087C54.4783 38.8821 54.3388 39.0296 54.1712 39.1391L29.6392 53.3019C29.3064 53.4849 29.0635 53.3385 29.0635 52.9691V52.7395C29.0748 52.5397 29.1328 52.3453 29.2327 52.172C29.3327 51.9986 29.4719 51.8511 29.6392 51.7412Z" fill="#E0E0E0"/>
<path d="M29.6392 55.6313L54.1712 41.4685C54.504 41.2855 54.7469 41.4352 54.7469 41.8013V42.0309C54.7361 42.2308 54.6784 42.4254 54.5783 42.5988C54.4783 42.7723 54.3388 42.9197 54.1712 43.0292L29.6392 57.192C29.3064 57.3784 29.0635 57.2286 29.0635 56.8592V56.6296C29.0751 56.4299 29.1331 56.2356 29.2331 56.0623C29.333 55.889 29.4721 55.7414 29.6392 55.6313Z" fill="#E0E0E0"/>
<path d="M29.6392 59.5313L54.1712 45.3685C54.504 45.1822 54.7469 45.3319 54.7469 45.7013V45.9309C54.7353 46.1306 54.6772 46.3249 54.5773 46.4982C54.4773 46.6716 54.3383 46.8191 54.1712 46.9292L29.6392 61.092C29.3064 61.2751 29.0635 61.1253 29.0635 60.7593V60.5296C29.0743 60.3297 29.132 60.1351 29.2321 59.9617C29.3321 59.7883 29.4715 59.6408 29.6392 59.5313Z" fill="#E0E0E0"/>
<path d="M29.6392 63.4448L54.1712 49.282C54.504 49.0989 54.7469 49.2487 54.7469 49.6147V49.8444C54.7361 50.0443 54.6784 50.2389 54.5783 50.4123C54.4783 50.5857 54.3388 50.7332 54.1712 50.8427L29.6392 65.0055C29.3064 65.1885 29.0635 65.0388 29.0635 64.6727V64.4431C29.0743 64.2432 29.132 64.0486 29.2321 63.8752C29.3321 63.7017 29.4715 63.5543 29.6392 63.4448Z" fill="#E0E0E0"/>
<path d="M29.6392 67.3415L54.1712 53.1787C54.504 52.9957 54.7469 53.1454 54.7469 53.5115V53.7378C54.7361 53.9377 54.6784 54.1323 54.5783 54.3057C54.4783 54.4791 54.3388 54.6266 54.1712 54.7361L29.6392 68.8989C29.3064 69.0819 29.0635 68.9355 29.0635 68.5661V68.3365C29.0753 68.1373 29.1335 67.9436 29.2335 67.7708C29.3334 67.5981 29.4723 67.4511 29.6392 67.3415Z" fill="#E0E0E0"/>
<path d="M29.6392 71.2385L54.1712 57.0657C54.504 56.8826 54.7469 57.0324 54.7469 57.3984V57.6314C54.7353 57.8311 54.6772 58.0254 54.5773 58.1987C54.4773 58.372 54.3383 58.5196 54.1712 58.6297L29.6392 72.7892C29.3064 72.9755 29.0635 72.8258 29.0635 72.4564V72.2268C29.0766 72.0288 29.1354 71.8365 29.2353 71.665C29.3351 71.4935 29.4734 71.3475 29.6392 71.2385Z" fill="#E0E0E0"/>
<path d="M25.9953 78.7857C25.8055 78.8866 25.5924 78.9356 25.3776 78.9278C25.1627 78.92 24.9537 78.8556 24.7718 78.7412C24.5898 78.6267 24.4412 78.4662 24.3411 78.276C24.241 78.0857 24.1929 77.8724 24.2017 77.6576V22.6668C24.2098 22.4391 24.275 22.2171 24.3914 22.0212L25.6193 22.73C25.5012 22.9241 25.4348 23.1453 25.4263 23.3723V78.363C25.4263 78.7491 25.6759 78.9221 25.9953 78.7857Z" fill="#E0E0E0"/>
<path d="M73.3121 19.7949L63.8214 60.8924L62.9462 64.6727C62.656 65.6815 62.0122 66.5521 61.1326 67.1252L4.82077 99.6239C4.41138 99.8459 3.95526 99.9679 3.48968 99.9799C2.98376 100.015 2.47797 99.9093 2.02881 99.6738L2.31832 98.4192L2.34827 98.2961L2.6644 96.9217L4.04208 90.9584L12.7674 53.1754C12.7793 53.1268 12.7972 53.0798 12.8206 53.0356C12.8439 52.9924 12.8706 52.9491 12.8972 52.9092V52.8892C12.9574 52.8078 13.0318 52.738 13.1168 52.6829L61.2192 24.9196L71.7448 18.8432C71.8344 18.7973 71.9336 18.7734 72.0343 18.7734C72.1349 18.7734 72.2342 18.7973 72.3238 18.8432L73.0992 19.2891C73.1812 19.3425 73.2453 19.4192 73.2832 19.5093C73.3212 19.5995 73.3313 19.699 73.3121 19.7949Z" fill="#37474F"/>
<path d="M73.3223 19.6984C73.3223 19.582 73.2291 19.5454 73.0993 19.6219L14.4813 53.4649C14.395 53.5182 14.3202 53.5883 14.2617 53.6712L12.9106 52.8892C12.9709 52.8078 13.0453 52.738 13.1303 52.6829L71.7449 18.8432C71.8345 18.7973 71.9338 18.7734 72.0344 18.7734C72.1351 18.7734 72.2343 18.7973 72.3239 18.8432L73.0993 19.2891C73.1672 19.3338 73.223 19.3946 73.2619 19.4659C73.3008 19.5373 73.3215 19.6172 73.3223 19.6984Z" fill="#455A64"/>
<path d="M14.2615 53.6713C14.2235 53.7226 14.1901 53.7771 14.1617 53.8343C14.144 53.873 14.1295 53.9131 14.1185 53.9541L5.77583 90.0866L4.01879 97.7005L3.79583 98.6622L3.48968 99.9933C2.98376 100.029 2.47797 99.9226 2.02881 99.6871L2.31832 98.4326L2.34827 98.3095L2.6644 96.9351L4.04208 90.9718L12.7674 53.1888C12.7793 53.1402 12.7972 53.0932 12.8206 53.049C12.8439 53.0057 12.8706 52.9625 12.8972 52.9226V52.9026L14.2615 53.6713Z" fill="#263238"/>
</svg>
